<?xml version="1.0" encoding="UTF-8" standalone="no"?>
<!-- Created with Inkscape (http://www.inkscape.org/) -->

<svg
   version="1.1"
   id="svg2"
   width="816"
   height="533.33331"
   viewBox="0 0 816 533.33331"
   sodipodi:docname="flower.ai"
   xmlns:inkscape="http://www.inkscape.org/namespaces/inkscape"
   xmlns:sodipodi="http://sodipodi.sourceforge.net/DTD/sodipodi-0.dtd"
   xmlns="http://www.w3.org/2000/svg"
   xmlns:svg="http://www.w3.org/2000/svg">
  <defs
     id="defs6">
    <clipPath
       clipPathUnits="userSpaceOnUse"
       id="clipPath16">
      <path
         d="M 0,400 H 612 V 0 H 0 Z"
         id="path14" />
    </clipPath>
  </defs>
  <sodipodi:namedview
     id="namedview4"
     pagecolor="#ffffff"
     bordercolor="#000000"
     borderopacity="0.25"
     inkscape:showpageshadow="2"
     inkscape:pageopacity="0.0"
     inkscape:pagecheckerboard="0"
     inkscape:deskcolor="#d1d1d1" />
  <g
     id="g8"
     inkscape:groupmode="layer"
     inkscape:label="flower"
     transform="matrix(1.3333333,0,0,-1.3333333,0,533.33333)">
    <g
       id="g10">
      <g
         id="g12"
         clip-path="url(#clipPath16)">
        <g
           id="g18"
           transform="translate(291.2256,190.8242)">
          <path
             d="m 0,0 c -6.344,-1.5 -8.602,-3.559 -8.602,-4.876 0,-2.689 8.91,-6.44 23.42,-6.44 14.51,0 23.419,3.751 23.419,6.44 0,1.312 -2.25,3.361 -8.567,4.862 -0.117,-0.026 -0.233,-0.048 -0.343,-0.063 -0.244,-0.045 -0.536,-0.097 -0.828,-0.139 -0.584,-0.092 -1.242,-0.16 -1.998,-0.208 -2.083,-0.131 -3.919,-0.017 -4.899,0.07 -3.257,-0.517 -5.683,-0.376 -5.786,-0.37 -0.148,0.009 -0.286,0.05 -0.41,0.117 -0.302,-0.179 -0.734,-0.178 -1.052,0.025 C 14.221,-0.663 14.065,-0.714 13.899,-0.724 13.796,-0.73 11.371,-0.871 8.113,-0.354 7.116,-0.441 5.247,-0.555 3.126,-0.424 2.811,-0.403 2.489,-0.372 2.179,-0.341 1.849,-0.31 1.515,-0.267 1.192,-0.212 0.922,-0.177 0.623,-0.127 0.322,-0.068 0.268,-0.062 0.214,-0.054 0.17,-0.042 0.111,-0.026 0.055,-0.013 0,0 m 14.818,-13.316 c -12.323,0 -25.42,2.958 -25.42,8.44 0,2.888 3.681,5.329 10.365,6.874 0.148,0.034 0.323,0.034 0.472,0 L 0.333,1.976 C 0.417,1.957 0.503,1.937 0.594,1.914 0.616,1.911 0.636,1.908 0.654,1.904 0.933,1.849 1.212,1.803 1.49,1.766 1.8,1.714 2.087,1.677 2.374,1.649 2.666,1.62 2.965,1.591 3.254,1.571 5.33,1.444 7.153,1.565 8.055,1.649 8.139,1.658 8.225,1.654 8.309,1.641 10.208,1.331 11.832,1.263 12.805,1.256 12.804,1.288 12.802,1.32 12.8,1.354 c -0.026,0.425 0.221,0.82 0.614,0.984 0.394,0.164 0.846,0.059 1.13,-0.258 0.129,-0.144 0.248,-0.275 0.358,-0.392 0.084,0.09 0.177,0.191 0.278,0.301 0.286,0.313 0.739,0.412 1.13,0.245 0.388,-0.166 0.63,-0.557 0.606,-0.978 0.974,0.007 2.595,0.076 4.49,0.385 0.085,0.013 0.171,0.017 0.256,0.008 0.884,-0.083 2.673,-0.205 4.713,-0.077 0.693,0.044 1.292,0.107 1.828,0.19 0.281,0.041 0.55,0.089 0.818,0.136 0.162,0.023 0.283,0.056 0.404,0.086 0.153,0.038 0.313,0.039 0.469,0.004 6.67,-1.547 10.343,-3.984 10.343,-6.864 0,-5.482 -13.096,-8.44 -25.419,-8.44"
             style="fill:#231f20;fill-opacity:1;fill-rule:nonzero;stroke:none"
             id="path20" />
        </g>
        <g
           id="g22"
           transform="translate(291.7129,190.7246)">
          <path
             d="m 0,0 c -3.125,-0.923 -3.959,-1.861 -3.959,-2.236 0,-1.317 6.455,-3.88 18.29,-3.88 11.82,0 18.27,2.563 18.27,3.88 0,0.375 -0.831,1.312 -3.944,2.224 -0.215,-0.037 -0.43,-0.073 -0.645,-0.104 -0.584,-0.092 -1.242,-0.16 -1.998,-0.208 -2.083,-0.131 -3.919,-0.018 -4.9,0.07 -3.257,-0.517 -5.682,-0.377 -5.785,-0.37 -0.148,0.009 -0.287,0.05 -0.41,0.116 -0.303,-0.179 -0.734,-0.178 -1.052,0.026 -0.134,-0.081 -0.289,-0.132 -0.455,-0.142 -0.103,-0.007 -2.529,-0.147 -5.786,0.37 C 6.629,-0.343 4.761,-0.455 2.639,-0.324 2.323,-0.304 2.002,-0.272 1.692,-0.241 1.361,-0.21 1.028,-0.167 0.705,-0.112 0.485,-0.083 0.245,-0.045 0,0 m 14.331,-8.116 c -9.773,0 -20.29,1.84 -20.29,5.88 0,1.76 1.84,3.141 5.625,4.221 C -0.181,2.03 0.011,2.037 0.167,2.004 0.446,1.948 0.725,1.902 1.003,1.865 1.313,1.813 1.6,1.776 1.886,1.749 2.179,1.72 2.478,1.69 2.767,1.671 4.841,1.545 6.665,1.666 7.568,1.749 7.652,1.758 7.738,1.754 7.821,1.74 c 1.9,-0.309 3.524,-0.378 4.497,-0.385 -0.002,0.033 -0.004,0.065 -0.005,0.098 -0.026,0.426 0.22,0.82 0.613,0.985 0.395,0.164 0.847,0.059 1.131,-0.258 0.129,-0.145 0.248,-0.276 0.358,-0.392 0.084,0.09 0.177,0.191 0.278,0.301 0.286,0.312 0.739,0.412 1.129,0.245 0.389,-0.166 0.631,-0.558 0.607,-0.979 0.973,0.007 2.594,0.077 4.491,0.385 0.084,0.014 0.17,0.018 0.255,0.009 0.884,-0.083 2.673,-0.205 4.713,-0.077 0.693,0.044 1.292,0.106 1.828,0.189 0.281,0.041 0.55,0.089 0.817,0.137 0.151,0.025 0.304,0.019 0.449,-0.021 3.728,-1.056 5.619,-2.473 5.619,-4.213 0,-4.04 -10.508,-5.88 -20.27,-5.88"
             style="fill:#231f20;fill-opacity:1;fill-rule:nonzero;stroke:none"
             id="path24" />
        </g>
        <g
           id="g26"
           transform="translate(313.1709,214.749)">
          <path
             d="m 0,0 c 0.687,-1.615 1.16,-3.226 1.417,-4.814 1.865,1.347 4.075,2.396 6.6,3.131 C 7.864,0.05 7.567,1.548 7.329,2.551 7.258,2.853 7.062,3.105 6.79,3.245 6.521,3.383 6.219,3.396 5.939,3.28 4.402,2.65 2.182,1.587 0,0 m 0.621,-7.74 c -0.129,0 -0.258,0.025 -0.381,0.075 -0.356,0.147 -0.596,0.486 -0.617,0.871 -0.117,2.171 -0.711,4.423 -1.767,6.693 C -2.34,0.322 -2.219,0.824 -1.851,1.11 0.701,3.097 3.382,4.394 5.181,5.131 5.999,5.466 6.919,5.428 7.704,5.024 8.496,4.617 9.069,3.884 9.275,3.012 9.701,1.219 9.969,-0.593 10.072,-2.371 10.1,-2.848 9.787,-3.278 9.324,-3.397 6.062,-4.241 3.359,-5.615 1.292,-7.482 1.104,-7.651 0.864,-7.74 0.621,-7.74"
             style="fill:#231f20;fill-opacity:1;fill-rule:nonzero;stroke:none"
             id="path28" />
        </g>
        <g
           id="g30"
           transform="translate(329.2031,205.3184)">
          <path
             d="m 0,0 h 0.01 z m -20.204,-12.528 c -0.016,-0.025 -0.032,-0.048 -0.05,-0.072 -0.176,-0.221 -0.35,-0.435 -0.518,-0.634 0.577,0.01 1.324,0.043 2.188,0.124 0.09,0.128 0.212,0.235 0.357,0.309 0.826,0.424 1.522,0.804 2.128,1.161 0.099,0.059 0.165,0.097 0.222,0.128 0.006,0.004 0.012,0.008 0.018,0.011 0.309,0.186 0.559,0.339 0.799,0.493 3.25,2.09 5.134,4.255 9.085,8.952 1.414,1.671 3.162,2.67 5.204,2.976 0.553,1.974 0.808,3.705 0.926,4.852 v 0.003 c 0.032,0.3 -0.065,0.586 -0.272,0.807 -0.209,0.22 -0.487,0.331 -0.795,0.319 -2.027,-0.106 -3.98,-0.399 -5.797,-0.869 -3.076,-0.794 -5.659,-2.065 -7.687,-3.783 0.004,-0.133 0.006,-0.26 0.006,-0.389 0,-0.398 -0.011,-0.785 -0.044,-1.173 -0.019,-0.327 -0.06,-0.675 -0.103,-1.024 -0.01,-0.08 -0.019,-0.163 -0.039,-0.253 -0.042,-0.318 -0.102,-0.637 -0.161,-0.954 -0.063,-0.357 -0.149,-0.714 -0.246,-1.081 -0.062,-0.248 -0.127,-0.498 -0.204,-0.737 -0.129,-0.442 -0.287,-0.903 -0.444,-1.332 -0.257,-0.714 -0.555,-1.376 -0.812,-1.928 -0.151,-0.311 -0.304,-0.609 -0.458,-0.907 -0.127,-0.243 -0.252,-0.473 -0.388,-0.713 -0.134,-0.237 -0.267,-0.461 -0.4,-0.688 -0.117,-0.2 -0.238,-0.398 -0.37,-0.595 -0.522,-0.852 -1.076,-1.622 -1.546,-2.259 -0.125,-0.153 -0.205,-0.249 -0.284,-0.356 -0.097,-0.117 -0.15,-0.183 -0.202,-0.249 z m -1.009,-2.712 c -0.571,0 -0.911,0.019 -0.948,0.022 -0.526,0.032 -0.937,0.471 -0.939,0.998 0,0 0,0.116 0.011,0.357 -0.001,0.148 0.01,0.41 0.031,0.748 0.016,0.231 0.11,0.45 0.269,0.619 0.275,0.294 0.593,0.666 0.921,1.08 0.022,0.036 0.048,0.069 0.075,0.102 l 0.133,0.165 c 0.068,0.086 0.139,0.175 0.212,0.26 0.058,0.082 0.158,0.204 0.27,0.339 0.409,0.557 0.932,1.283 1.436,2.104 0.129,0.193 0.227,0.355 0.326,0.526 0.133,0.224 0.259,0.438 0.386,0.661 0.124,0.221 0.239,0.432 0.354,0.652 0.144,0.278 0.289,0.56 0.426,0.842 0.232,0.499 0.508,1.109 0.739,1.753 0.146,0.397 0.288,0.816 0.412,1.235 0.07,0.22 0.124,0.43 0.179,0.65 0.086,0.325 0.16,0.629 0.215,0.941 0.059,0.311 0.115,0.61 0.153,0.91 0.005,0.041 0.013,0.081 0.023,0.12 0.004,0.035 0.01,0.089 0.012,0.097 0.032,0.272 0.07,0.58 0.089,0.89 0.029,0.355 0.038,0.687 0.038,1.029 0,0.248 -0.008,0.488 -0.017,0.734 -0.011,0.295 0.108,0.641 0.328,0.839 2.317,2.089 5.302,3.615 8.869,4.535 1.946,0.504 4.032,0.817 6.197,0.931 C -0.122,8.945 0.729,8.598 1.337,7.955 1.942,7.313 2.237,6.442 2.145,5.566 2.005,4.209 1.686,2.092 0.956,-0.292 0.836,-0.688 0.483,-0.968 0.071,-0.998 c -1.787,-0.127 -3.306,-0.917 -4.517,-2.348 -4.084,-4.855 -6.037,-7.097 -9.533,-9.345 -0.256,-0.164 -0.523,-0.329 -0.798,-0.492 -0.042,-0.03 -0.087,-0.056 -0.134,-0.081 l -0.104,-0.058 c -0.142,-0.084 -0.286,-0.167 -0.431,-0.251 0.02,-0.073 0.032,-0.149 0.035,-0.227 0.02,-0.506 -0.339,-0.946 -0.838,-1.027 -2.139,-0.349 -3.93,-0.413 -4.964,-0.413"
             style="fill:#231f20;fill-opacity:1;fill-rule:nonzero;stroke:none"
             id="path32" />
        </g>
        <g
           id="g34"
           transform="translate(313.6436,204.9185)">
          <path
             d="m 0,0 h 0.01 z m -8.822,-10.895 c 0.02,-0.022 0.04,-0.044 0.058,-0.067 0.314,-0.4 0.619,-0.752 0.886,-1.047 0.13,-0.147 0.252,-0.279 0.362,-0.397 0.084,0.09 0.177,0.191 0.278,0.301 0.283,0.302 0.601,0.675 0.929,1.089 0.023,0.036 0.048,0.069 0.076,0.101 l 0.132,0.165 c 0.069,0.087 0.139,0.176 0.212,0.262 0.064,0.077 0.144,0.185 0.225,0.292 0.023,0.031 0.049,0.062 0.076,0.09 0.43,0.585 0.927,1.28 1.405,2.06 0.129,0.193 0.228,0.355 0.327,0.526 0.132,0.224 0.258,0.437 0.385,0.661 0.124,0.221 0.24,0.432 0.355,0.651 0.143,0.279 0.289,0.561 0.426,0.843 0.232,0.499 0.507,1.109 0.739,1.753 0.145,0.397 0.288,0.816 0.412,1.235 0.069,0.22 0.124,0.43 0.179,0.65 0.086,0.325 0.16,0.629 0.214,0.941 0.059,0.31 0.116,0.611 0.154,0.91 0.005,0.041 0.013,0.081 0.022,0.12 0.004,0.035 0.011,0.089 0.013,0.097 0.031,0.272 0.069,0.58 0.089,0.889 0.028,0.355 0.038,0.688 0.038,1.03 0,0.248 -0.009,0.488 -0.018,0.734 -0.121,2.225 -0.715,4.476 -1.768,6.733 -1.267,2.735 -2.942,4.959 -4.124,6.344 -0.393,0.455 -1.164,0.458 -1.563,-0.004 -1.179,-1.381 -2.855,-3.605 -4.119,-6.337 -1.076,-2.326 -1.667,-4.601 -1.759,-6.762 -0.01,-0.269 -0.019,-0.481 -0.019,-0.708 0,-0.342 0.009,-0.675 0.036,-1.008 0.021,-0.393 0.059,-0.755 0.105,-1.099 0.046,-0.301 0.104,-0.62 0.162,-0.928 l 0.052,-0.23 c 0.044,-0.197 0.087,-0.397 0.145,-0.597 0.167,-0.665 0.341,-1.233 0.538,-1.773 0.064,-0.216 0.12,-0.345 0.173,-0.475 0.007,-0.017 0.013,-0.035 0.02,-0.053 10e-4,-0.003 0.002,-0.005 0.003,-0.008 l 0.246,-0.587 c 0.648,-1.541 1.474,-3.033 2.459,-4.438 0.181,-0.272 0.34,-0.505 0.517,-0.739 0.138,-0.194 0.239,-0.337 0.348,-0.473 0.213,-0.307 0.396,-0.533 0.567,-0.74 0.002,-0.002 0.005,-0.005 0.007,-0.007 m 2.038,-2.274 c 0.05,-0.067 0.096,-0.14 0.134,-0.217 l 0.008,0.005 c -0.037,0.077 -0.086,0.148 -0.142,0.212 M -7.52,-14.84 c -0.308,0 -0.607,0.154 -0.799,0.393 -0.218,0.215 -0.58,0.577 -1.047,1.102 -0.274,0.302 -0.589,0.666 -0.915,1.077 -0.032,0.032 -0.061,0.067 -0.087,0.103 -0.211,0.255 -0.43,0.53 -0.63,0.824 -0.086,0.099 -0.215,0.28 -0.343,0.462 -0.198,0.26 -0.379,0.526 -0.571,0.814 -1.053,1.503 -1.949,3.12 -2.65,4.787 l -0.257,0.614 c -0.011,0.025 -0.02,0.049 -0.028,0.074 -0.083,0.202 -0.16,0.398 -0.217,0.604 -0.198,0.528 -0.391,1.164 -0.566,1.863 -0.061,0.206 -0.115,0.448 -0.167,0.686 l -0.057,0.25 c -0.071,0.374 -0.133,0.715 -0.185,1.057 -0.056,0.413 -0.098,0.831 -0.12,1.249 -0.03,0.356 -0.041,0.743 -0.041,1.141 0,0.255 0.009,0.491 0.018,0.735 0.105,2.482 0.759,5.01 1.944,7.574 1.361,2.939 3.153,5.321 4.418,6.801 0.579,0.672 1.416,1.055 2.3,1.055 0.883,0 1.721,-0.383 2.297,-1.052 1.268,-1.483 3.06,-3.865 4.42,-6.803 C 0.357,8.083 1.015,5.584 1.148,3.145 1.161,2.794 1.17,2.532 1.17,2.26 1.17,1.862 1.158,1.475 1.126,1.087 1.106,0.76 1.065,0.412 1.022,0.062 1.014,-0.017 1.004,-0.1 0.983,-0.19 0.941,-0.508 0.882,-0.827 0.822,-1.145 0.76,-1.501 0.674,-1.858 0.576,-2.225 0.515,-2.473 0.449,-2.723 0.373,-2.962 0.243,-3.404 0.086,-3.865 -0.071,-4.294 -0.328,-5.008 -0.626,-5.67 -0.884,-6.222 c -0.15,-0.311 -0.303,-0.61 -0.458,-0.907 -0.127,-0.244 -0.252,-0.473 -0.387,-0.713 -0.134,-0.237 -0.267,-0.461 -0.401,-0.688 -0.116,-0.2 -0.237,-0.398 -0.369,-0.595 -0.522,-0.852 -1.076,-1.623 -1.547,-2.259 -0.027,-0.036 -0.056,-0.071 -0.087,-0.103 -0.075,-0.099 -0.148,-0.195 -0.221,-0.285 -0.073,-0.085 -0.125,-0.151 -0.177,-0.217 l -0.114,-0.139 c -0.015,-0.025 -0.032,-0.048 -0.049,-0.072 -0.379,-0.479 -0.751,-0.917 -1.077,-1.264 -0.165,-0.18 -0.691,-0.751 -0.991,-1.028 -0.183,-0.214 -0.455,-0.348 -0.758,-0.348"
             style="fill:#231f20;fill-opacity:1;fill-rule:nonzero;stroke:none"
             id="path36" />
        </g>
        <g
           id="g38"
           transform="translate(289.9419,199.0156)">
          <path
             d="M 0,0 C 0,0 0,0 0,-0.001 0,0 0,0 0,0 m 0.069,-0.106 c 0.009,-0.011 0.015,-0.018 0.018,-0.021 z m 11.537,-6.702 c 0.912,-0.085 1.693,-0.117 2.282,-0.126 -0.151,0.178 -0.308,0.368 -0.468,0.569 -0.031,0.032 -0.06,0.067 -0.087,0.103 -0.21,0.255 -0.43,0.53 -0.629,0.824 -0.086,0.099 -0.215,0.28 -0.343,0.461 -0.198,0.261 -0.38,0.527 -0.571,0.815 -1.053,1.503 -1.949,3.12 -2.65,4.787 L 8.882,1.239 C 8.872,1.264 8.863,1.288 8.854,1.312 8.771,1.515 8.695,1.711 8.638,1.917 8.44,2.445 8.247,3.081 8.071,3.78 8.011,3.986 7.957,4.228 7.904,4.466 L 7.848,4.716 C 7.777,5.089 7.715,5.431 7.663,5.772 7.607,6.186 7.564,6.604 7.543,7.021 7.513,7.378 7.501,7.765 7.501,8.163 c 0,0.108 0.002,0.213 0.005,0.316 -2,1.728 -4.587,3.018 -7.699,3.836 -2.32,0.603 -4.477,0.817 -5.877,0.89 -0.311,0.005 -0.59,-0.1 -0.8,-0.322 -0.209,-0.221 -0.306,-0.511 -0.274,-0.816 0.185,-1.675 0.497,-3.303 0.928,-4.844 2.05,-0.306 3.798,-1.305 5.203,-2.976 C -0.514,3.648 -0.058,3.103 0.388,2.587 0.675,2.243 0.94,1.937 1.2,1.638 L 1.54,1.245 C 1.547,1.24 1.613,1.176 1.686,1.069 1.861,0.884 2.026,0.696 2.187,0.511 L 2.417,0.25 c 1.236,-1.37 2.264,-2.372 3.328,-3.244 0.182,-0.159 0.346,-0.296 0.51,-0.424 0.147,-0.114 0.299,-0.227 0.45,-0.339 l 0.257,-0.191 c 0.323,-0.236 0.673,-0.469 1.04,-0.712 0.04,-0.021 0.093,-0.054 0.135,-0.083 l 0.131,-0.082 c 0.174,-0.11 0.344,-0.218 0.52,-0.313 0.032,-0.017 0.066,-0.039 0.101,-0.063 l 0.135,-0.08 c 0.031,-0.015 0.061,-0.031 0.09,-0.047 0.607,-0.362 1.285,-0.734 2.134,-1.17 0.146,-0.074 0.268,-0.182 0.358,-0.31 m 2.628,-2.13 c -1.033,0 -2.825,0.065 -4.963,0.414 -0.499,0.081 -0.859,0.521 -0.838,1.027 0.003,0.078 0.015,0.155 0.035,0.228 -0.102,0.06 -0.202,0.119 -0.301,0.177 -0.024,0.011 -0.047,0.023 -0.07,0.035 L 7.942,-6.965 C 7.927,-6.958 7.912,-6.95 7.896,-6.942 7.851,-6.919 7.8,-6.886 7.752,-6.85 c -0.2,0.113 -0.374,0.222 -0.551,0.333 l -0.13,0.082 v 0 c -0.03,0.016 -0.06,0.034 -0.089,0.052 -0.424,0.279 -0.827,0.549 -1.21,0.828 l -0.256,0.191 c -0.167,0.123 -0.333,0.246 -0.491,0.37 -0.193,0.15 -0.389,0.312 -0.574,0.475 -1.118,0.915 -2.212,1.981 -3.522,3.432 L 0.68,-0.805 c -0.162,0.187 -0.328,0.377 -0.508,0.564 -0.048,0.05 -0.091,0.104 -0.128,0.163 l -0.355,0.405 c -0.268,0.309 -0.542,0.625 -0.826,0.965 -0.442,0.511 -0.905,1.066 -1.409,1.671 -1.2,1.426 -2.719,2.215 -4.513,2.342 -0.413,0.029 -0.765,0.31 -0.885,0.705 -0.564,1.843 -0.964,3.809 -1.189,5.843 -0.093,0.887 0.203,1.761 0.81,2.404 0.607,0.643 1.47,0.982 2.352,0.945 1.497,-0.078 3.798,-0.306 6.284,-0.952 C 3.925,13.3 6.914,11.752 9.199,9.649 9.415,9.45 9.532,9.167 9.521,8.874 9.51,8.602 9.501,8.39 9.501,8.163 9.501,7.821 9.511,7.488 9.538,7.155 9.559,6.762 9.596,6.4 9.643,6.056 9.688,5.755 9.747,5.436 9.805,5.127 L 9.857,4.898 C 9.9,4.701 9.944,4.501 10.002,4.301 10.169,3.636 10.342,3.067 10.54,2.528 10.604,2.312 10.659,2.183 10.712,2.053 10.719,2.036 10.726,2.018 10.732,2 10.733,1.998 10.734,1.995 10.735,1.992 l 0.246,-0.587 c 0.648,-1.541 1.475,-3.033 2.46,-4.438 0.181,-0.272 0.339,-0.505 0.517,-0.739 0.137,-0.194 0.238,-0.337 0.348,-0.473 0.213,-0.307 0.395,-0.533 0.567,-0.74 0.002,-0.002 0.004,-0.005 0.006,-0.007 0.021,-0.022 0.04,-0.044 0.059,-0.068 0.314,-0.399 0.619,-0.752 0.885,-1.046 0.153,-0.169 0.243,-0.384 0.257,-0.611 0.021,-0.355 0.031,-0.645 0.031,-0.85 0.011,-0.215 0.011,-0.35 0.011,-0.35 -0.001,-0.527 -0.413,-0.966 -0.939,-0.998 -0.037,-0.003 -0.377,-0.023 -0.949,-0.023"
             style="fill:#231f20;fill-opacity:1;fill-rule:nonzero;stroke:none"
             id="path40" />
        </g>
        <g
           id="g42"
           transform="translate(291.0645,213.04)">
          <path
             d="M 0,0 C 2.538,-0.754 4.746,-1.813 6.59,-3.163 6.842,-1.561 7.319,0.07 8.017,1.709 5.836,3.295 3.616,4.359 2.08,4.989 1.798,5.104 1.496,5.092 1.228,4.953 0.957,4.813 0.76,4.56 0.688,4.258 0.45,3.25 0.153,1.743 0,0 m 7.396,-6.116 c -0.248,0 -0.491,0.092 -0.679,0.265 -2.03,1.875 -4.731,3.269 -8.029,4.143 -0.46,0.122 -0.771,0.55 -0.743,1.024 0.103,1.785 0.371,3.602 0.797,5.402 0.206,0.872 0.779,1.606 1.571,2.014 C 1.099,7.135 2.019,7.175 2.838,6.839 4.637,6.102 7.316,4.806 9.868,2.819 10.235,2.533 10.356,2.031 10.16,1.608 9.087,-0.7 8.493,-2.978 8.395,-5.161 8.377,-5.55 8.136,-5.893 7.776,-6.041 7.653,-6.092 7.524,-6.116 7.396,-6.116"
             style="fill:#231f20;fill-opacity:1;fill-rule:nonzero;stroke:none"
             id="path44" />
        </g>
        <g
           id="g46"
           transform="translate(314.792,192.3564)">
          <path
             d="m 0,0 c 0.817,-0.024 1.782,-0.025 2.809,0.04 0.693,0.044 1.292,0.106 1.828,0.189 0.281,0.042 0.55,0.089 0.817,0.137 0.162,0.023 0.283,0.056 0.404,0.086 2.65,0.586 4.352,1.681 5.086,3.261 1.96,4.214 6.382,6.232 9.077,7.103 -1.454,0.652 -3.5,1.317 -5.527,1.149 C 12.695,11.837 11.176,11.047 9.965,9.616 5.881,4.761 3.928,2.519 0.433,0.271 0.291,0.181 0.146,0.09 0,0 m 0.993,-2.016 c -1.334,0 -2.438,0.08 -3.086,0.142 -0.884,0.073 -1.421,0.158 -1.421,0.158 -0.427,0.068 -0.763,0.403 -0.832,0.83 -0.068,0.427 0.146,0.85 0.531,1.047 0.825,0.424 1.521,0.804 2.128,1.161 0.098,0.059 0.165,0.097 0.221,0.128 0.006,0.004 0.012,0.008 0.018,0.011 0.309,0.185 0.559,0.339 0.8,0.493 3.25,2.09 5.133,4.255 9.085,8.952 1.573,1.86 3.559,2.886 5.903,3.053 2.631,0.22 5.192,-0.692 6.881,-1.494 0.708,-0.339 1.122,-1.058 1.057,-1.834 C 22.215,9.865 21.696,9.231 20.956,9.014 18.63,8.306 14.479,6.567 12.758,2.87 11.747,0.695 9.58,-0.773 6.317,-1.495 6.146,-1.538 5.946,-1.585 5.761,-1.609 5.517,-1.654 5.225,-1.706 4.933,-1.748 4.349,-1.84 3.69,-1.908 2.935,-1.956 2.254,-1.999 1.6,-2.016 0.993,-2.016"
             style="fill:#231f20;fill-opacity:1;fill-rule:nonzero;stroke:none"
             id="path48" />
        </g>
        <g
           id="g50"
           transform="translate(276.9814,203.2891)">
          <path
             d="M 0,0 C 0,0 0.001,0 0.001,0 0.001,0 0,0 0,0 m 12.96,-4.273 c 10e-4,-0.001 10e-4,-0.001 10e-4,-0.001 0,0 0,0 -10e-4,0.001 m 0.069,-0.107 c 0.009,-0.011 0.016,-0.017 0.018,-0.02 z m 1.809,-6.171 c 0.022,-0.003 0.042,-0.006 0.06,-0.01 0.279,-0.055 0.558,-0.101 0.836,-0.138 0.31,-0.052 0.597,-0.089 0.884,-0.116 0.292,-0.03 0.591,-0.059 0.881,-0.079 1.059,-0.063 2.051,-0.064 2.89,-0.038 -0.077,0.047 -0.152,0.094 -0.227,0.142 l -0.131,0.082 h 0.001 c -0.031,0.016 -0.061,0.033 -0.09,0.052 -0.424,0.279 -0.827,0.549 -1.21,0.828 l -0.256,0.19 c -0.166,0.123 -0.333,0.246 -0.491,0.37 -0.193,0.151 -0.388,0.313 -0.574,0.476 -1.118,0.915 -2.212,1.98 -3.521,3.432 -0.124,0.132 -0.255,0.281 -0.387,0.43 -0.125,0.143 -0.252,0.286 -0.383,0.428 -0.043,0.046 -0.081,0.097 -0.115,0.15 l -0.356,0.406 c -0.267,0.308 -0.541,0.624 -0.825,0.965 -0.442,0.511 -0.906,1.065 -1.41,1.67 C 9.215,0.115 7.696,0.904 5.901,1.032 3.867,1.203 1.827,0.536 0.372,-0.117 3.081,-0.994 7.493,-3.013 9.44,-7.221 c 0.729,-1.563 2.394,-2.65 4.949,-3.23 0.031,-0.004 0.062,-0.009 0.09,-0.016 l 0.098,-0.022 c 0.084,-0.019 0.171,-0.039 0.261,-0.062 m 4.509,-2.397 c -0.618,0 -1.284,0.016 -1.976,0.059 -0.316,0.021 -0.638,0.052 -0.948,0.083 -0.33,0.032 -0.664,0.075 -0.986,0.129 -0.27,0.035 -0.57,0.085 -0.871,0.144 -0.054,0.006 -0.108,0.014 -0.152,0.026 -0.099,0.027 -0.192,0.047 -0.281,0.068 l -0.04,0.008 c -0.027,0.004 -0.054,0.009 -0.078,0.014 -3.226,0.719 -5.376,2.183 -6.389,4.354 -1.713,3.701 -5.87,5.439 -8.194,6.146 -0.732,0.211 -1.254,0.847 -1.317,1.615 -0.064,0.776 0.35,1.496 1.055,1.833 1.691,0.804 4.255,1.713 6.885,1.495 2.342,-0.166 4.329,-1.193 5.892,-3.053 0.499,-0.598 0.955,-1.143 1.401,-1.659 0.287,-0.344 0.553,-0.65 0.813,-0.95 L 14.5,-3.028 c 0.008,-0.006 0.077,-0.073 0.152,-0.185 0.12,-0.131 0.237,-0.264 0.353,-0.395 0.12,-0.137 0.239,-0.271 0.36,-0.402 1.249,-1.384 2.277,-2.386 3.341,-3.258 0.182,-0.159 0.346,-0.295 0.51,-0.423 0.146,-0.115 0.298,-0.227 0.45,-0.339 l 0.256,-0.192 c 0.324,-0.235 0.674,-0.468 1.041,-0.711 0.039,-0.02 0.092,-0.054 0.135,-0.084 l 0.131,-0.082 c 0.173,-0.109 0.343,-0.217 0.52,-0.312 0.031,-0.018 0.066,-0.039 0.1,-0.064 l 0.135,-0.08 c 0.031,-0.014 0.061,-0.03 0.091,-0.047 0.607,-0.362 1.284,-0.734 2.133,-1.169 0.385,-0.198 0.599,-0.621 0.531,-1.047 -0.069,-0.428 -0.405,-0.763 -0.832,-0.83 0,0 -0.537,-0.085 -1.433,-0.16 -0.652,-0.06 -1.772,-0.14 -3.127,-0.14"
             style="fill:#231f20;fill-opacity:1;fill-rule:nonzero;stroke:none"
             id="path52" />
        </g>
        <g
           id="g54"
           transform="translate(308.5127,192.7783)">
          <path
             d="m 0,0 c -0.215,0 -0.432,0.069 -0.614,0.212 -0.43,0.334 -0.512,0.951 -0.186,1.387 0.059,0.079 0.117,0.153 0.179,0.229 0.029,0.038 0.059,0.077 0.088,0.116 0.422,0.563 1.417,0.465 1.715,-0.17 C 1.346,1.423 1.297,1.008 1.049,0.71 1.015,0.669 0.982,0.63 0.95,0.591 0.892,0.514 0.834,0.439 0.776,0.368 0.579,0.126 0.291,0 0,0"
             style="fill:#231f20;fill-opacity:1;fill-rule:nonzero;stroke:none"
             id="path56" />
        </g>
        <g
           id="g58"
           transform="translate(293.4839,190.4756)">
          <path
             d="m 0,0 c 1.164,-0.821 5.648,-2.058 12.6,-2.058 6.801,0 11.24,1.184 12.52,2.052 -0.278,-0.027 -0.57,-0.05 -0.877,-0.069 -2.083,-0.131 -3.919,-0.018 -4.9,0.07 -3.257,-0.517 -5.682,-0.377 -5.785,-0.37 -0.148,0.009 -0.287,0.05 -0.41,0.116 -0.303,-0.178 -0.734,-0.178 -1.052,0.026 C 11.962,-0.314 11.807,-0.365 11.641,-0.375 11.538,-0.382 9.112,-0.522 5.855,-0.005 4.857,-0.093 2.989,-0.206 0.868,-0.075 0.579,-0.057 0.286,-0.028 0,0 m 12.6,-4.058 c -5.527,0 -14.88,0.925 -14.88,4.391 0,0.376 0.116,0.94 0.673,1.497 0.228,0.228 0.556,0.332 0.872,0.279 C -0.458,2.063 -0.171,2.025 0.115,1.998 0.408,1.969 0.707,1.939 0.996,1.92 3.071,1.793 4.895,1.914 5.797,1.998 5.881,2.007 5.966,2.003 6.051,1.989 7.95,1.68 9.574,1.611 10.547,1.604 c -0.002,0.033 -0.004,0.065 -0.005,0.098 -0.026,0.426 0.22,0.82 0.613,0.985 0.395,0.164 0.847,0.059 1.131,-0.258 0.129,-0.145 0.248,-0.276 0.358,-0.392 0.084,0.09 0.177,0.191 0.278,0.301 0.286,0.312 0.739,0.412 1.129,0.245 0.389,-0.166 0.631,-0.558 0.607,-0.979 0.973,0.007 2.594,0.077 4.49,0.385 0.085,0.014 0.171,0.018 0.256,0.009 0.884,-0.083 2.673,-0.205 4.713,-0.077 0.693,0.044 1.292,0.106 1.828,0.189 0.315,0.05 0.636,-0.054 0.861,-0.28 0.557,-0.557 0.673,-1.121 0.673,-1.497 0,-3.466 -9.353,-4.391 -14.879,-4.391"
             style="fill:#231f20;fill-opacity:1;fill-rule:nonzero;stroke:none"
             id="path60" />
        </g>
      </g>
    </g>
  </g>
</svg>
